<?xml version="1.0" encoding="utf-8"?>
<!-- Generator: Adobe Illustrator 27.4.1, SVG Export Plug-In . SVG Version: 6.00 Build 0)  -->
<svg version="1.1" id="Layer_1" xmlns="http://www.w3.org/2000/svg" xmlns:xlink="http://www.w3.org/1999/xlink" x="0px" y="0px"
	 viewBox="0 0 296.69 98.73" style="enable-background:new 0 0 296.69 98.73;" xml:space="preserve">
<style type="text/css">
	.st0{fill-rule:evenodd;clip-rule:evenodd;}
</style>
<g>
	<g>
		<path class="st0" d="M182.64,73.58c-16.55,12.21-40.54,18.71-61.2,18.71c-28.96,0-55.03-10.7-74.76-28.52
			c-1.55-1.4-0.17-3.31,1.7-2.23c21.29,12.39,47.62,19.85,74.81,19.85c18.34,0,38.51-3.81,57.06-11.68
			C183.03,68.52,185.38,71.56,182.64,73.58z"/>
		<path class="st0" d="M189.53,65.72c-2.12-2.71-13.99-1.29-19.33-0.65c-1.62,0.19-1.87-1.22-0.41-2.24c9.47-6.65,25-4.73,26.8-2.51
			c1.82,2.25-0.48,17.81-9.35,25.24c-1.37,1.14-2.66,0.53-2.06-0.98C187.17,79.6,191.64,68.43,189.53,65.72z"/>
	</g>
	<path class="st0" d="M170.57,15.82V9.36c0-0.98,0.75-1.64,1.64-1.64l28.98,0c0.93,0,1.67,0.67,1.67,1.63l0,5.54
		c-0.01,0.93-0.79,2.14-2.18,4.07L185.67,40.4c5.57-0.13,11.47,0.7,16.53,3.55c1.14,0.64,1.45,1.59,1.54,2.52v6.9
		c0,0.95-1.04,2.05-2.13,1.48c-8.92-4.67-20.76-5.18-30.62,0.06c-1.01,0.54-2.06-0.55-2.06-1.5v-6.56c0-1.05,0.02-2.84,1.08-4.44
		l17.39-24.95l-15.14,0C171.32,17.45,170.58,16.79,170.57,15.82z"/>
	<path class="st0" d="M64.87,56.21h-8.82c-0.84-0.05-1.51-0.69-1.58-1.49l0.01-45.25c0-0.91,0.76-1.63,1.7-1.63l8.21,0
		c0.86,0.04,1.55,0.69,1.6,1.52v5.91h0.17c2.14-5.71,6.17-8.38,11.6-8.38c5.51,0,8.97,2.67,11.44,8.38
		c2.14-5.71,6.99-8.38,12.18-8.38c3.7,0,7.74,1.52,10.2,4.95c2.8,3.81,2.22,9.33,2.22,14.19l-0.01,28.55c0,0.9-0.76,1.63-1.7,1.63
		h-8.81c-0.88-0.06-1.58-0.76-1.58-1.62l0-23.99c0-1.9,0.16-6.67-0.25-8.47c-0.66-3.05-2.63-3.9-5.18-3.9
		c-2.14,0-4.36,1.43-5.27,3.71c-0.91,2.29-0.82,6.09-0.82,8.66v23.98c0,0.9-0.76,1.63-1.7,1.63h-8.81
		c-0.88-0.06-1.58-0.76-1.58-1.62l-0.01-23.99c0-5.05,0.82-12.47-5.43-12.47c-6.34,0-6.09,7.24-6.09,12.47l0,23.98
		C66.57,55.48,65.81,56.21,64.87,56.21z"/>
	<path class="st0" d="M227.81,6.89c13.08,0,20.16,11.24,20.16,25.52c0,13.81-7.82,24.76-20.16,24.76
		c-12.84,0-19.83-11.24-19.83-25.23C207.97,17.84,215.05,6.89,227.81,6.89z M227.89,16.12c-6.5,0-6.91,8.85-6.91,14.38
		c0,5.52-0.08,17.33,6.83,17.33c6.83,0,7.16-9.52,7.16-15.33c0-3.81-0.16-8.38-1.32-12C232.66,17.36,230.69,16.12,227.89,16.12z"/>
	<path class="st0" d="M264.94,56.21h-8.78c-0.88-0.06-1.58-0.76-1.58-1.62l-0.01-45.26c0.07-0.83,0.8-1.48,1.69-1.48l8.18,0
		c0.77,0.04,1.4,0.57,1.57,1.27v6.92h0.17c2.47-6.19,5.92-9.14,12.01-9.14c3.95,0,7.82,1.43,10.29,5.33c2.3,3.62,2.3,9.71,2.3,14.09
		v28.47c-0.1,0.8-0.82,1.43-1.69,1.43h-8.84c-0.82-0.05-1.47-0.65-1.57-1.43V30.21c0-4.95,0.58-12.19-5.51-12.19
		c-2.14,0-4.12,1.43-5.1,3.62c-1.23,2.76-1.4,5.52-1.4,8.57v24.36C266.64,55.48,265.88,56.21,264.94,56.21z"/>
	<path class="st0" d="M147.47,34.6c0,3.44,0.08,6.3-1.65,9.35c-1.4,2.48-3.63,4.01-6.1,4.01c-3.38,0-5.36-2.58-5.36-6.39
		c0-7.51,6.74-8.87,13.11-8.87V34.6z M156.36,56.09c-0.58,0.52-1.42,0.56-2.08,0.21c-2.93-2.43-3.45-3.56-5.05-5.88
		c-4.84,4.93-8.27,6.41-14.54,6.41c-7.42,0-13.2-4.58-13.2-13.74c0-7.16,3.88-12.02,9.4-14.41c4.78-2.1,11.46-2.48,16.58-3.05v-1.14
		c0-2.1,0.17-4.58-1.07-6.39c-1.07-1.62-3.13-2.29-4.95-2.29c-3.36,0-6.35,1.72-7.09,5.29c-0.15,0.79-0.73,1.58-1.53,1.62
		l-8.54-0.92c-0.72-0.16-1.52-0.74-1.32-1.84c1.96-10.37,11.33-13.5,19.71-13.5c4.29,0,9.9,1.14,13.28,4.39
		c4.29,4.01,3.88,9.35,3.88,15.17v13.73c0,4.13,1.72,5.94,3.33,8.17c0.56,0.8,0.69,1.76-0.03,2.34c-1.8,1.51-5,4.29-6.76,5.86
		L156.36,56.09z"/>
	<path class="st0" d="M31.9,34.6c0,3.44,0.08,6.3-1.65,9.35c-1.4,2.48-3.63,4.01-6.1,4.01c-3.38,0-5.36-2.58-5.36-6.39
		c0-7.51,6.74-8.87,13.11-8.87V34.6z M40.79,56.09c-0.58,0.52-1.43,0.56-2.08,0.21c-2.93-2.43-3.45-3.56-5.05-5.88
		c-4.84,4.93-8.27,6.41-14.53,6.41c-7.42,0-13.2-4.58-13.2-13.74c0-7.16,3.88-12.02,9.4-14.41c4.78-2.1,11.46-2.48,16.58-3.05v-1.14
		c0-2.1,0.17-4.58-1.07-6.39c-1.07-1.62-3.13-2.29-4.95-2.29c-3.36,0-6.35,1.72-7.09,5.29c-0.15,0.79-0.73,1.58-1.53,1.62
		l-8.54-0.92C8,21.63,7.2,21.05,7.41,19.95C9.37,9.58,18.73,6.45,27.12,6.45c4.29,0,9.9,1.14,13.28,4.39
		c4.29,4.01,3.88,9.35,3.88,15.17v13.73c0,4.13,1.72,5.94,3.33,8.17c0.56,0.8,0.69,1.76-0.03,2.34c-1.8,1.51-5,4.29-6.76,5.86
		L40.79,56.09z"/>
</g>
</svg>
