<?xml version="1.0" encoding="utf-8"?>
<!-- Generator: Adobe Illustrator 27.4.1, SVG Export Plug-In . SVG Version: 6.00 Build 0)  -->
<svg version="1.1" id="Layer_1" xmlns="http://www.w3.org/2000/svg" xmlns:xlink="http://www.w3.org/1999/xlink" x="0px" y="0px"
	 viewBox="0 0 175.43 117.88" style="enable-background:new 0 0 175.43 117.88;" xml:space="preserve">
<style type="text/css">
	.st0{fill-rule:evenodd;clip-rule:evenodd;}
</style>
<g>
	<path class="st0" d="M121.76,6.87c6.05-3.03,9.16-2.56,9.23,0.47c0.08,3.96-0.54,9.23-0.93,13.03
		c-2.33,20.64-6.05,37.48-6.36,58.74c10.01-25.92,18.31-43.76,29.1-65.88c3.41-7.06,5.66-5.74,8.46-7.06
		c10.94-4.89,11.33-1.86,9.85,4.19c-5.28,21.96-18.78,91.4-20.87,102.03c-0.62,3.1-4.03,1.86-4.81,0.62
		c-4.03-5.35-8.38-5.43-7.91-9.08c2.48-17.69,11.33-62.46,13.58-73.01c-11.72,23.9-23.82,53.93-30.03,70.84
		c-1.32,3.57-3.72,3.34-5.2,0.7c-2.17-3.8-6.21-5.66-6.83-10.01c-2.17-13.89,2.41-40.43,3.03-57.26
		c-6.28,18.31-16.99,54-21.65,70.06c-1.94,6.67-8.38,5.51-6.67-0.85c7.14-27.08,22.42-74.8,29.02-91.95
		C114.31,8.35,118.43,8.58,121.76,6.87L121.76,6.87z"/>
	<path class="st0" d="M83.12,3.54c-2.1-0.47-8.15,2.79-11.87,3.34c-1.16,0.31-2.25,1.47-2.64,2.4c-5.9,13.58-11.17,26.46-15.67,38.1
		c-5.9,1.09-12.73,2.41-20.33,4.04c5.51-13.97,11.02-27.85,16.37-41.12c2.64-6.67-4.34-7.29-7.06-0.62
		c-3.49,8.61-10.09,24.83-17.38,43.68c-5.35,1.32-11.17,2.79-17.07,4.58c-4.35,1.16-4.5,2.33-2.64,4.97c1.09,1.4,3.1,1.24,4.11,2.33
		c2.56,2.64,4.11,5.82,8.69,6.28C13.44,82.37,9.41,93.47,5.84,104.1c-2.33,6.75,4.27,8.15,6.75,1.01
		c4.03-11.41,8.3-22.97,12.73-34.68c3.65-0.78,12.41-2.64,20.56-4.5c-6.44,17.85-10.63,31.27-12.34,37.86
		c-0.31,1.24,0.31,1.86,0.54,2.48c2.1,3.1,4.27,3.26,7.06,7.22c0.7,1.09,3.26,1.63,4.19-1.01C51.31,94.32,57.36,77.41,63.1,62.2
		c2.41-0.62,6.75-1.63,9.39-5.51c4.66-6.98,5.98-5.59,7.22-7.68c1.4-2.72,0.39-5.12-4.58-4.58c0,0-1.86,0.16-5.43,0.54
		c5.59-14.2,10.55-26.23,13.97-35.46C84.83,6.33,84.98,4,83.12,3.54L83.12,3.54z"/>
	<path class="st0" d="M77.66,91.71c0.81-1.02,1.54-2.08,2.2-3.06c2.94-4.35,0.08-6.91-2.95-4.35c-0.43,0.4-0.88,0.83-1.33,1.28
		c-0.49-1.54-1.01-3.17-1.48-4.66c1.39-1.7,2.74-3.44,3.89-5.23c4.86-7.54-4.65-11.87-8.77-6.98c-2.17,2.56-1.63,5.12-1.01,7.37
		c0.18,0.68,0.46,1.64,0.81,2.81c-1.16,1.22-2.55,2.71-4.38,4.87c-4.73,5.43-3.42,12.43,1.55,13.97c3,0.93,5.82-0.42,8.27-2.59
		c0.12,0.31,0.23,0.6,0.34,0.88c1.32,3.26,5.43,2.25,3.8-1.71C78.36,93.65,78.03,92.76,77.66,91.71L77.66,91.71z M70.93,84.88
		c0.4,1.27,0.84,2.6,1.27,3.87c-0.54,0.45-1.09,0.91-1.64,1.23c-1.92,1.11-3.34-0.08-0.85-3.41C70.1,85.99,70.52,85.43,70.93,84.88
		L70.93,84.88z M72.48,75.38c-0.14-0.36-0.22-0.71-0.3-1c-1.39-5.2,4.57-3.81,1.55-0.39C73.31,74.48,72.92,74.96,72.48,75.38
		L72.48,75.38z"/>
</g>
</svg>
