<?xml version="1.0" encoding="utf-8"?>
<!-- Generator: Adobe Illustrator 27.4.1, SVG Export Plug-In . SVG Version: 6.00 Build 0)  -->
<svg version="1.1" id="Layer_1" xmlns="http://www.w3.org/2000/svg" xmlns:xlink="http://www.w3.org/1999/xlink" x="0px" y="0px"
	 viewBox="0 0 193.43 35.84" style="enable-background:new 0 0 193.43 35.84;" xml:space="preserve">
<style type="text/css">
	.st0{fill-rule:evenodd;clip-rule:evenodd;}
</style>
<g>
	<polygon class="st0" points="28.02,28.55 28.02,32.53 3.17,32.53 3.17,5.2 7.65,5.2 7.65,28.55 28.02,28.55 	"/>
	<polygon class="st0" points="24.54,15.14 29.51,5.7 24.79,5.7 21.06,15.14 24.54,15.14 	"/>
	<path class="st0" d="M65.16,9.69c-1.61-2.53-3.96-4.67-6.74-6.12c-2.77-1.45-5.96-2.23-9.15-2.23c-3.19,0-6.38,0.77-9.15,2.23
		C37.36,5.02,35,7.16,33.39,9.69c-1.61,2.53-2.48,5.47-2.48,8.41c0,2.94,0.87,5.88,2.48,8.41c1.61,2.53,3.96,4.67,6.74,6.12
		c2.77,1.45,5.96,2.23,9.15,2.23c3.19,0,6.38-0.77,9.15-2.23c2.77-1.45,5.12-3.58,6.74-6.12c1.61-2.53,2.48-5.47,2.48-8.41
		C67.64,15.16,66.77,12.22,65.16,9.69L65.16,9.69L65.16,9.69L65.16,9.69z M61.3,24.79c-1.2,1.99-2.96,3.66-5.04,4.81
		c-2.08,1.14-4.47,1.75-6.86,1.75c-2.39,0-4.79-0.61-6.86-1.75c-2.08-1.14-3.83-2.82-5.04-4.81c-1.2-1.99-1.85-4.29-1.85-6.59
		c0-2.3,0.65-4.6,1.85-6.59c1.2-1.99,2.96-3.67,5.04-4.81c2.08-1.14,4.47-1.76,6.86-1.76c2.39,0,4.79,0.61,6.86,1.76
		c2.08,1.14,3.83,2.82,5.04,4.81c1.2,1.99,1.85,4.29,1.85,6.59C63.14,20.5,62.5,22.8,61.3,24.79L61.3,24.79L61.3,24.79L61.3,24.79z"
		/>
	<path class="st0" d="M98.83,16.99c-0.81,1.78-2.34,2.81-3.54,3.43c-1.2,0.62-2.06,0.84-2.93,0.81l0,0l8.7,11.3h-4.97L87.69,21.6
		H76.72v10.93h-4.47V5.2h17.89l0,0c1.81,0,3.64,0.36,5.26,1.27c1.62,0.91,3.02,2.29,3.68,4.25C99.72,12.68,99.64,15.21,98.83,16.99
		L98.83,16.99z M93.83,16.8c0.94-0.8,1.5-2.11,1.45-3.4c-0.05-1.3-0.7-2.59-1.64-3.37c-0.94-0.78-2.13-0.85-3.26-0.85l0,0H76.72
		v8.45h13.66l0,0C91.59,17.62,92.89,17.6,93.83,16.8L93.83,16.8z"/>
	<polygon class="st0" points="124.67,16.88 124.67,20.61 109.51,20.61 109.51,28.55 129.88,28.55 129.88,32.53 105.04,32.53 
		105.04,5.2 129.88,5.2 129.88,9.18 109.51,9.18 109.51,16.88 124.67,16.88 	"/>
	<polygon class="st0" points="124.92,0.98 118.21,0.98 115.47,4.46 124.92,0.98 	"/>
	<path class="st0" d="M138.64,25.57l-3.54,6.96h-4.47L144.54,5.2h4.47l13.91,27.32h-4.47l-3.54-6.96H138.64L138.64,25.57z
		 M146.78,9.6l-6.36,12.5h12.73L146.78,9.6L146.78,9.6z"/>
	<polygon class="st0" points="190.01,28.55 190.01,32.53 165.16,32.53 165.16,5.2 169.64,5.2 169.64,28.55 190.01,28.55 	"/>
	<path class="st0" d="M188.07,10.69l-0.04-0.65l0,0c-0.01-0.12,0-0.24-0.05-0.38c-0.05-0.14-0.13-0.28-0.22-0.38
		c-0.09-0.1-0.18-0.14-0.28-0.15c0.18-0.06,0.34-0.19,0.46-0.38c0.12-0.19,0.19-0.43,0.18-0.7c0-0.27-0.08-0.55-0.22-0.76
		c-0.3-0.45-0.84-0.52-1.31-0.5l0,0h-1.98v4.56h0.77V9.48h1.15l0,0c0.13,0,0.33-0.02,0.54,0.15c0.28,0.33,0.15,0.76,0.2,1.12
		c0,0.22,0.03,0.42,0.12,0.61l0,0h0.86v-0.14l0,0C188.11,11.15,188.09,10.92,188.07,10.69L188.07,10.69L188.07,10.69L188.07,10.69z
		 M187.12,8.68c-0.24,0.15-0.48,0.15-0.65,0.15l0,0h-1.08V7.44l0,0c0.47,0.01,0.95-0.02,1.42,0.02c0.18,0.02,0.4,0.13,0.51,0.36
		C187.41,8.12,187.41,8.44,187.12,8.68L187.12,8.68L187.12,8.68L187.12,8.68z"/>
	<path class="st0" d="M189.74,7.13c-0.34-0.58-0.83-1.07-1.41-1.41c-0.58-0.34-1.25-0.52-1.93-0.52c-0.67,0-1.34,0.18-1.93,0.52
		c-0.58,0.34-1.07,0.83-1.41,1.41c-0.34,0.58-0.52,1.25-0.52,1.93c0,0.67,0.18,1.34,0.52,1.93c0.34,0.58,0.83,1.07,1.41,1.41
		c0.58,0.34,1.25,0.52,1.93,0.52c0.67,0,1.34-0.18,1.93-0.52c0.58-0.34,1.07-0.83,1.41-1.41c0.34-0.58,0.52-1.25,0.52-1.93
		C190.26,8.38,190.08,7.71,189.74,7.13L189.74,7.13L189.74,7.13L189.74,7.13z M189.28,10.73c-0.29,0.49-0.7,0.91-1.2,1.2
		c-0.49,0.28-1.07,0.44-1.64,0.44c-0.57,0-1.14-0.15-1.64-0.44c-0.49-0.28-0.91-0.7-1.2-1.2c-0.29-0.49-0.44-1.06-0.44-1.63
		s0.15-1.14,0.44-1.63c0.29-0.49,0.7-0.91,1.2-1.2c0.49-0.28,1.07-0.44,1.64-0.44c0.57,0,1.14,0.15,1.64,0.44
		c0.5,0.28,0.91,0.7,1.2,1.2c0.29,0.49,0.44,1.06,0.44,1.63S189.57,10.24,189.28,10.73L189.28,10.73L189.28,10.73L189.28,10.73z"/>
</g>
</svg>
