<?xml version="1.0" encoding="utf-8"?>
<!-- Generator: Adobe Illustrator 27.4.1, SVG Export Plug-In . SVG Version: 6.00 Build 0)  -->
<svg version="1.1" id="Layer_1" xmlns="http://www.w3.org/2000/svg" xmlns:xlink="http://www.w3.org/1999/xlink" x="0px" y="0px"
	 viewBox="0 0 155.18 57.67" style="enable-background:new 0 0 155.18 57.67;" xml:space="preserve">
<style type="text/css">
	.st0{fill-rule:evenodd;clip-rule:evenodd;fill:#231F20;}
</style>
<g>
	<path class="st0" d="M21.12,3.93C11.24,15.54,1.76,29.93,1.67,40.68c-0.04,4.05,1.25,7.58,4.35,10.26
		c4.46,3.85,9.37,5.21,14.26,5.22c7.15,0.01,14.24-2.87,19.8-5.1c9.36-3.74,112.79-48.66,112.79-48.66c1-0.5,0.81-1.12-0.44-0.81
		c-0.5,0.13-112.6,30.5-112.6,30.5c-2.16,0.61-4.37,0.92-6.52,0.93c-8.62,0.05-16.28-4.73-16.22-14.81
		C17.12,14.28,18.32,9.53,21.12,3.93L21.12,3.93z"/>
</g>
</svg>
