<?xml version="1.0" encoding="utf-8"?>
<!-- Generator: Adobe Illustrator 27.4.1, SVG Export Plug-In . SVG Version: 6.00 Build 0)  -->
<svg version="1.1" id="Layer_1" xmlns="http://www.w3.org/2000/svg" xmlns:xlink="http://www.w3.org/1999/xlink" x="0px" y="0px"
	 viewBox="0 0 370 78" style="enable-background:new 0 0 370 78;" xml:space="preserve">
<g id="XMLID_1_">
	<path id="XMLID_5_" d="M11.9,49.78c1.28,0.16,2.49,0.27,3.77,0.27c8,0,9.91-6.84,9.91-10.65c0-5.63-2.8-9.71-8.7-9.71
		c-1.79,0-3.34,0.16-5.01,0.27v19.82H11.9z M12.41,75.15c-1.67-0.08-8.39-0.08-9.91,0C2.85,69.44,2.66,26.2,2.66,26.2
		c1.63,0.16,15.43,0,16.82,0c3.42,0,7.15,0.27,10.45,2.72c2.72,1.98,4.86,4.86,4.86,10.06c0,6.76-4.2,14.57-17.95,14.57
		c-2.14,0-3.3-0.16-4.93-0.27C11.9,53.28,12.21,72.82,12.41,75.15"/>
	<path id="XMLID_8_" d="M56.86,37.7l-7.3,17.56c2.49,0.08,4.93,0.27,7.42,0.27c2.21,0,4.35-0.16,6.57-0.27L56.86,37.7z M68.63,67.27
		l-2.99-7.58c-3.07-0.16-14.84-0.16-17.72,0c-2.29,5.52-4.58,11.42-5.71,15.5c-0.89,0-5.63-0.04-6.64,0l8.28-18.42
		c7.23-16.12,11.35-25.41,13.06-31.24c0.78,0.04,3.92,0,4.62,0c3.42,9.75,7.69,19.78,10.26,25.76c2.72,6.22,7.42,16.98,10.65,23.9
		c-1.05-0.08-9.52,0-10.84,0L68.63,67.27z"/>
	<path id="XMLID_9_" d="M93.69,26.24c0.58,0,2.8,0.04,3.34,0c6.76,7.5,13.13,14.1,21.76,22.54l8.43,8.28
		c1.36,1.28,1.98,1.79,3.57,3.07c0,0-0.35-28.05-0.85-33.88c0.82,0.04,5.21,0.04,6.06,0c-0.62,8.63-0.62,47.52-0.62,49.31
		c-0.51,0-2.29-0.04-2.91,0c-9.05-9.83-26.62-27.31-34.19-34.23c0,9.71,0.08,14.92,0.19,22.5c0.08,4.12,0.16,4.86,0.66,11.42
		c-0.78-0.04-5.28-0.04-6.06,0l0.58-9.91C93.77,63.34,93.77,32.88,93.69,26.24"/>
	<path id="XMLID_12_" d="M162.46,61.13c0,3.26,0.19,6.61,0.35,9.91c1.55,0.08,7.93,0.35,9.71,0.35c4.7,0,16.82-3.5,16.82-21.84
		c0-9.21-4.35-19.54-19.19-19.54c-2.41,0-4.93,0.16-7.34,0.35c-0.16,2.84-0.35,5.79-0.35,8.63V61.13z M188.5,71.11
		c-4.97,3.19-9.64,4.08-15.46,4.08c-4.35,0-17.64-0.16-19.78,0c0,0,0.58-35.16,0.35-39.67c-0.16-3.07-0.23-6.14-0.35-9.29
		c1.86,0.16,13.87,0,18.15,0c6.06,0,13.64,0.27,19.54,4.93c5.48,4.27,8.2,10.69,8.2,18.11C199.14,59.34,195.22,66.84,188.5,71.11"/>
	<path id="XMLID_15_" d="M285.48,48.58c1.36,0.08,3.07,0.23,4.93,0.23c7.11,0,9.75-5.21,9.75-9.83c0-2.99-0.51-5.56-2.99-7.42
		c-1.94-1.44-4.27-1.79-6.64-1.79c-1.36,0-4,0.27-5.05,0.35V48.58z M299.19,53.78c1.05,1.52,2.64,3.85,3.69,5.36
		c5.63,7.93,7.58,10.41,12.04,16.05c-1.94-0.04-9.99-0.12-12.12,0c-1.05-1.63-2.64-4.27-3.69-5.94
		c-3.65-5.63-8.08-11.93-11.93-17.33h-1.71c0,0,0.27,21.41,0.27,23.27c-1.44-0.16-8.12-0.23-9.71,0
		c0.58-14.07,0.66-39.75,0.16-48.96c1.63,0.16,17.25,0,18.88,0c4.62,0,8.12,0.58,11.19,3.5c2.14,2.06,3.26,5.01,3.26,8
		c0,7.93-5.91,12.01-12.39,13.21L299.19,53.78z"/>
	<path id="XMLID_18_" d="M341.89,37.7l-7.27,17.56c2.49,0.08,4.93,0.27,7.42,0.27c2.21,0,4.35-0.16,6.57-0.27L341.89,37.7z
		 M353.67,67.27l-2.99-7.58c-3.07-0.16-14.84-0.16-17.68,0c-2.29,5.52-4.58,11.42-5.71,15.5c-1.01-0.08-5.63,0-6.64,0l8.28-18.42
		c7.19-16.12,11.35-25.41,13.06-31.24c0.78,0,3.85,0.04,4.62,0c3.42,9.75,7.69,19.78,10.26,25.76c2.72,6.22,7.42,16.98,10.65,23.9
		c-1.05,0-9.56-0.08-10.84,0L353.67,67.27z"/>
	<path id="XMLID_21_" d="M236.75,72.32c12.04,0,16.75-11.42,16.75-21.6c0-11.62-4.35-21.6-16.75-21.6
		c-12.28,0-16.82,11.85-16.82,21.6C219.93,61.32,224.48,72.32,236.75,72.32 M263.29,49.86c0,15.89-10.76,26.11-26.54,26.11
		c-14.84,0-26.62-8.78-26.62-24.4c0-18.11,12.39-26.11,26.81-26.11C250.24,25.46,263.29,32.72,263.29,49.86"/>
	<path id="XMLID_22_" d="M238.46,17.3c0,0.93-0.78,1.71-1.71,1.71c-0.93,0-1.71-0.78-1.71-1.71c0-0.93,0.78-1.71,1.71-1.71
		C237.73,15.59,238.46,16.37,238.46,17.3"/>
	<path id="XMLID_23_" d="M233.18,17.69c0,0.93-0.78,1.71-1.71,1.71s-1.71-0.78-1.71-1.71c0-0.93,0.78-1.71,1.71-1.71
		S233.18,16.76,233.18,17.69"/>
	<path id="XMLID_24_" d="M243.79,17.69c0,0.93-0.78,1.71-1.71,1.71s-1.71-0.78-1.71-1.71c0-0.93,0.78-1.71,1.71-1.71
		S243.79,16.76,243.79,17.69"/>
	<path id="XMLID_25_" d="M243.05,21.03c-2.02-0.31-4.04-0.47-6.06-0.47c-2.25,0-4.39,0.16-6.45,0.51l0.7,2.41
		c0,0,2.53-0.43,5.75-0.43c3.22,0,5.32,0.39,5.32,0.39L243.05,21.03z"/>
	<path id="XMLID_26_" d="M238.81,14.19l-2.02-12.16l-2.02,12.16c0.74-0.04,1.28-0.04,2.02-0.04
		C237.41,14.15,238.19,14.15,238.81,14.19"/>
	<path id="XMLID_27_" d="M225.02,3.08l3.61,11.77c1.28-0.23,2.6-0.39,3.92-0.51L225.02,3.08z"/>
	<path id="XMLID_28_" d="M248.41,3.08l-3.5,11.77c-1.28-0.23-2.56-0.39-3.92-0.51L248.41,3.08z"/>
</g>
</svg>
