<?xml version="1.0" encoding="utf-8"?>
<!-- Generator: Adobe Illustrator 27.4.1, SVG Export Plug-In . SVG Version: 6.00 Build 0)  -->
<svg version="1.1" id="Layer_1" xmlns="http://www.w3.org/2000/svg" xmlns:xlink="http://www.w3.org/1999/xlink" x="0px" y="0px"
	 viewBox="0 0 169.06 160.73" style="enable-background:new 0 0 169.06 160.73;" xml:space="preserve">
<style type="text/css">
	.st0{fill-rule:evenodd;clip-rule:evenodd;}
</style>
<g>
	<path class="st0" d="M62.98,2.11c3.04,0.01,4.64,2.39,5.21,3.17c0.27,0.79,0.49,1.59,0.76,3.21c0.04,0.33,0.06,0.53,0.06,0.86
		c0,1.33-0.32,2.08-0.81,3.32c-0.43,1.07-0.61,1.74-1.4,2.59c-1.14,1.24-1.95,1.61-2.29,2.06c-0.15,0.21-1.33,1.3-1.67,1.8
		c-0.34,0.5-1.66,2.56-2.19,3.69c-0.44,0.92-0.39,2.46-1.94,4.6c-0.63,0.88-1.17,1.31-1.51,2.34c-0.34,1.04-0.33,1.72-0.88,2.66
		c-1.01,1.71-1.95,2.45-2.78,4.24c-0.8,1.73-0.84,2.86-1.37,4.68c-0.57,1.91-1.88,2.66-2.08,4.63c-0.11,0.92,0.11,1.47,0,2.4
		c-0.31,2.83-2.27,3.84-3.67,6.32c-0.51,0.92-0.51,1.6-0.68,2.65c-0.23,1.47-0.48,2.27-0.94,3.68c-0.79,2.38-0.72,3.87-1.19,6.32
		c-0.31,1.61-0.49,2.54-0.76,4.15c-0.13,0.84-0.63,1.26-0.63,2.12l0.01,0.82c0,0.56-0.35,0.83-0.38,1.4
		c-0.1,1.27-0.33,1.97-0.5,3.22c-0.86,6.34-2.04,9.75-3.57,15.96c-0.56,2.24-0.54,3.58-1.06,5.82c-0.39,1.67-0.75,2.6-0.88,4.31
		c-0.1,1.36-0.09,2.12-0.18,3.48c-0.11,1.56,0.07,2.45,0.07,4.02c0.01,0.9-0.07,1.42-0.18,2.31c-0.64,5.11-1.76,8.85-1.87,13.1v2.79
		l-0.43,4.05v0.69c0.01,2.15-1.97,4.25-3.88,4.25c-2.6-0.01-3.43-2.73-3.85-5.45c-0.26-1.71-0.54-2.7-0.78-4.42
		c-0.13-0.98-0.6-1.41-0.82-2.36c-0.07-0.33-0.05-0.53-0.09-0.82c-0.05-0.29-1.05-4.86-1.82-7.93c-0.64-2.54-1.33-7.27-1.44-7.38
		c-0.13-0.13-0.46-1.97-0.61-3.77c-0.09-1.06-0.48-2.19-0.56-2.66c-0.07-0.52,0.13-0.82,0.04-1.34c-0.24-1.43-0.32-2.26-0.64-3.67
		c-0.32-1.35-0.49-2.07-0.71-3.49v-0.57c-0.18-2.49-0.97-5.4-1.41-8.87c-0.2-1.56-0.12-2.48-0.26-4.04
		c-0.12-1.25-0.21-2.94-0.8-3.17c-0.8-0.31-1.06,0.84-1.36,1.45c-0.66,1.32-1.04,2.05-1.59,3.42c-0.78,1.97-1.05,3.14-1.94,5.06
		c-0.99,2.13-1.35,3.4-2.25,5.58c-0.7,1.71-1.83,3.25-3.46,3.29c-1.38,0.03-2.79-1.5-2.86-2.78c-0.07-1.02,0.47-3.3,1.16-5.16
		c0.73-1.95,1.28-3.48,1.71-5.07c0.45-1.69,0.73-2.17,1.19-3.97c0.59-2.34,1.5-3.89,2.14-6.22c0.76-2.74,1.5-4,2.4-6.7
		c0.42-1.27,0.72-2.18,1.06-3.48c0.17-0.61,0.8-2.45,1.2-4.05c0.3-1.25,0.54-2.58,0.88-3.17c0.66-1,1.79-1.25,3-1.24
		c2.55,0,4.26,1.33,4.29,3.85c0.02,1.68-0.23,3.67,0.09,5.38c0.02,1.16,0.19,0.7,0.37,1.84c0.7,4.46,1.01,5.03,1.37,8.54
		c0.44,2.03,0.76,5.68,0.76,5.68c0,1.43,0.53,3.89,0.86,5.28c0.31,1.37-0.01,1.91,0.49,4.05c0.38,1.65,0.62,3.74,0.67,4.3
		c0.05,0.73,0.23,2.11,0.36,2.82c0.08,0.52,0.19,1.65,0.53,3.41c0.4,1.2,0.27,2.2,0.83,3.49c0.14,0.34,0.34,0.71,0.72,0.71
		c0.32,0.01,0.62-0.49,0.84-0.92c0.74-1.4,0.68-2.28,1.22-3.77c0.68-1.87,0.97-3.12,1.26-4.94c0.49-2.09,1-6.06,1.94-9.87
		c0.96-3.85,1.33-6.06,2.07-9.94c0.51-2.66,1.06-4.26,1.52-6.78c0.27-1.2,0.62-1.86,0.62-3.1c0.1-0.71,0.31-1.16,0.44-1.9
		c0.5-2.64,0.96-4.52,1.19-6.78v-0.62c0.12-0.47,0.29-1.57,0.88-2.73c0.62-1.88,1.21-2.88,2.27-4.55c1.57-2.49,1.34-4.41,2.27-7.21
		c0.13-0.21,0.83-1.75,0.98-2.95c0.15-0.15,0.54-1,0.7-1.99c0.36-0.41,1.89-6.87,2.97-9.48c0.05-0.64,0.6-1.45,0.89-2.35
		c0.26-0.86,1.79-4.76,2.5-7.14c0.6-1.93,0.41-3.16,1.2-5c0.85-1.97,1.37-4.17,1.57-5.25c0.49-1.21,0.96-1.83,1.71-2.91
		c1.08-1.55,1.77-2.55,3.52-3.24C61.56,2.46,62.12,2.11,62.98,2.11L62.98,2.11z M114.62,33.96c1.93,0.01,3.88,1.3,3.81,3.22
		c-0.07,1.54-0.55,1.85-0.88,2.4c-0.52,0.86-0.32,2.3-3.26,2.59c-1.55-0.01-3.46-1.78-3.46-3.78
		C110.82,36.13,112.36,33.96,114.62,33.96L114.62,33.96z M133.72,40.55c2.69,0.01,4.05,2.65,3.98,5.58c-0.01,0.27-0.1,0.42-0.1,0.7
		c0,0.74,0.11,1.16,0.11,1.9c0,0.69-0.24,2.53-0.24,2.53c0,1.43-0.43,2.21-0.43,3.64c0,0.4,0.12,0.64,0.12,1.04
		c0,0.82-0.12,1.28-0.19,2.09c-0.17,2.01,1.2,2.14,1.65,3.06c0.96,0.45,1.44,1.28,2.54,1.28c0.5,0.01,2.05-0.65,2.47-0.79
		c2.01-0.89,3.18-1.37,5.12-2.4c3-1.58,4.24-2.86,7.17-4.7c1.93-1.24,3.73-2.46,6.03-2.45c1.91,0,3.69,1.42,4.23,2.74
		c0.25,0.64,0.62,1.46,0.62,2.3c0,0.31,0.13,0.47,0.13,0.76c0,0.44-0.01,0.7-0.06,1.14c-0.14,1.24-0.11,2.01-0.56,3.16
		c-0.47,1.2-1.27,1.63-2.34,2.34c-1.19,0.81-2.16,1.2-3.61,1.2h-0.76c-1.02-0.01-1.47-0.32-2.49-0.32c-1.61,0-2.59,0.65-4.02,1.37
		c-1.71,0.84-3.65,1.95-4.24,2.23c-1.67,0.78-5.09,2.6-8.22,4.47c-6.43,3.84-10.87,5.89-17.1,10.02c-2.41,1.61-3.07,2.39-5.63,3.73
		c-1.57,0.84-2.66,1.01-4.17,1.96c-2.56,1.61-3.93,2.74-6.02,4.94c-1.84,1.56-4.48,4.28-6.72,5.42c-2.07,1.06-4.45,3.02-5.93,4.8
		c-0.3,0.37-1.75,1.3-1.95,3.48l0.47,6c0.01,1.14-0.53,1.89-0.45,3.24l0.07,4.23c0.01,1.59,0.54,1.75,0.54,3.08l0.05,1.69
		c0,1.99,0.79,3.03,0.82,5.01c-0.19,2.15,0.03,3.09,0.08,5.13c0.06,1.99,0.35,3.2,0.84,5.12c0.35,1.44,0.23,2.23,0.86,3.55
		c0.91,1.97,1.32,3.07,2.29,5.02c0.65,1.3,1.05,2.37,1.05,3.83c0.01,2.84-2.27,4.61-5.31,4.93c-0.27,0.03-2.6,0.04-3.56-0.59
		c-1.19-0.82-1.52-2.36-1.59-3.79c-0.09-1.99-0.04-2.73-0.37-4.76c0.02-1.05-0.25-1.63-0.53-2.62c-0.6-2.26-1.03-3.56-1.08-5.9
		c-0.06-3,0.18-4.7,0.18-7.71c-0.13-1.99-0.28-3.11-0.52-5.08c-0.25-1.95-0.63-3.09-0.86-5.03c-0.4-3.29-0.4-5.13-0.59-8.44
		c-0.06-0.81-0.06-1.24-0.14-2.05c-0.01-1-0.44-1.47-1.1-1.48c-1.36,0-1.94,1-3.12,1.67c-1.64,0.92-2.49,1.8-3.87,3.07
		c-2.8,2.06-3.97,3.24-6.24,5.71c-1.49,1.62-2.2,2.72-3.85,4.17c-1.33,1.17-2.2,1.74-3.48,2.97c-1.05,1-1.41,1.81-2.21,3.04
		c-0.72,1.09-1.41,1.53-2.4,2.39c-3.59,3.16-4.29,3.04-8.72,8.66c-1.3,1.65-2.26,1.88-2.59,2.42c-0.07,0.11-1.53,1.32-2.07,1.84
		c-0.73,0.73-1.85,1.81-2.49,2.31c-1.41,1.14-1.93,2.15-3.29,3.36c-1.55,1.35-2.52,2.18-4.49,2.84c-0.92,0.3-1.27,0.63-2.25,0.63
		c-2.02,0-3.39-1.91-3.4-3.93c0-1.28,0.64-1.76,1.39-2.78c1.46-1.98,2.45-3.01,4.3-4.61c3.03-2.66,4.1-4.91,7.46-7.15
		c1.17-0.78,4.1-2.4,4.9-3.01c1.36-1.06,2.56-2.22,3.64-3.56c0.47-0.61,1-0.76,1.45-1.39c0.48-0.67,0.64-1.16,1.2-1.77
		c1.27-1.38,2.24-1.95,3.79-3.03c2.01-1.41,3.16-2.03,5.06-3.59c1.36-1.1,1.95-2.06,3.03-3.42c2.15-2.68,4.17-3.4,6.96-5.43
		c1.3-0.94,1.71-1.85,2.72-3.1c0.55-0.69,2.4-3.06,4.24-4.68c1.23-1.08,1.98-1.64,3.22-2.72c2.14-1.85,2.89-1.18,2.84-4.01
		c0-0.49,0.13-1.17-0.6-1.11c-0.68,0.06-0.86,0.63-1.35,1.07c-1.05,0.93-1.7,1.39-3.1,1.37c-2.86-0.05-4.68-2.61-4.76-2.78
		c-0.81-1.6-2.12-6.47-2.17-7.97c0,0-0.09-2.02,0-3.17c0.11-1.44,0.48-4.07,1.38-5.64c0.49-0.86,0.94-4.29,1.54-7.45
		c0.22-1.15,0.86-2.32,1.23-3.43c0.53-1.61,0.79-2.59,1.76-3.98c1.72-2.45,2.66-5.22,5.66-5.21c0.67,0,0.98,0.17,1.58,0.46
		c0.38,0.21,0.82,0.28,1.05,0.64c0.21,0.33,0.01,0.62,0.33,0.86c0.56,0.44,0.82,1.34,0.82,2.23c0,0.51,0,0.81-0.06,1.31
		c-0.23,2.02-1.45,2.84-2.72,4.42c-1.23,1.55-1.53,2.05-2.31,3.87c-0.63,1.48-0.79,3.01-1.1,4.6c-0.37,1.87-0.69,3.53-0.81,4.82
		c-0.05,0.41-0.09,0.76-0.09,1.18c0,0.47,0.35,1.34,0.82,1.34c0.74,0,1.41-0.89,1.66-1.59c0.6-1.63,1.06-2.44,1.47-4.13
		c0.6-2.42,1-3.49,1.94-5.54c1.17-2.54,1.3-4.15,1.98-6.23c0.82-2.5,1.53-4.82,4.18-4.8c0.84,0,1.4,0.01,2.13,0.43
		c1.66,0.92,2.07,2.5,2.07,4.39c-0.02,0.58-0.03,0.92-0.09,1.5c-0.61,5.67-2.02,8.72-2.49,14.43c-0.07,0.8,0,1.28-0.07,2.09
		c-0.12,1.43-0.45,2.2-0.44,3.65c0,0.64,0.14,1,0.33,1.61c0.09,0.32,0.2,0.7,0.54,0.7c0.66,0,0.94-0.47,1.49-0.82
		c1.07-0.67,1.79-0.9,2.84-1.59c1.63-1.07,2.68-1.5,4.24-2.64c1.6-1.17,3.24-2.98,4.9-4.05c1.63-1.05,1.83-0.78,3.57-1.88
		c2.11-1.34,3.39-2.03,5.38-3.53c1.2-0.92,1.24-1.56,2.97-2.53c1.66-0.94,2.62-1.45,4.24-2.46c0.86-0.54,1.3-0.96,2.21-1.39
		c0.76-0.36,1.52-0.7,1.52-1.55c-0.01-0.84-0.53-1.33-0.96-2.05c-0.62-1.04-0.73-1.6-0.74-2.8c0-0.6-0.02-1.05,0.07-1.63
		c0.38-2.34,1.29-3.58,1.28-5.95l0.07-0.77c-0.11-0.09-0.17-0.19-0.32-0.19c-0.33,0-0.53,0.43-0.73,0.68
		c-0.61,0.7-0.96,1.14-1.55,1.86c-0.79,0.94-1.3,1.44-1.83,2.53c-0.31,0.6-0.26,1.02-0.5,1.65c-0.54,1.36-0.94,2.17-1.39,3.57
		c-1.24,3.75-1.16,8.71-5.11,8.7c-2.6-0.01-4.71-2.07-4.72-4.67c0-1.5,0.43-3.78,0.61-3.95c0.64-0.54,0.13-1.97,0.5-2.3
		c0.31-0.26,0.43-1.57,0.43-2.86c0-0.6,0.17-0.95,0.17-1.54l0.07-0.96c0-1.08,0.34-1.65,0.5-2.71c0.32-2.16,0.88-2.68,1.06-3.3
		c0.1-0.36,0.07-0.53,0.2-0.88c0.7-1.96,0.54-3.12,2.45-4.74c0.69-0.68,1.12-1.41,2.09-1.41c2.24,0.01,2.86,1.28,3.43,1.23
		c1.05-0.11,1.4-0.91,2.14-1.64C129.11,43.18,130.56,40.54,133.72,40.55L133.72,40.55z M108.7,54.37c2.13,0,4.25,0.79,4.19,3.52
		c-0.03,1.62-0.87,2.4-1.44,3.89c-0.48,1.24-0.23,2.07-0.56,3.35c-0.51,1.91-1.31,1.71-1.2,4.93c0.04,2.42,0.03,3.79-0.05,6.2
		c-0.09,2.33-2.01,3.97-4.34,4c-2.03,0.04-4.1-2.37-4.09-4.39c0-1.45,0.41-2.23,0.5-3.67c0.07-1.26-0.03-1.97,0.06-3.23
		c0.13-2.14,0.71-3.28,1.38-5.32c0.33-1.01,0.31-1.67,0.7-2.66c0.55-1.45,0.71-2.27,1.57-3.67
		C105.78,55.76,106.97,54.36,108.7,54.37L108.7,54.37z M50.54,61.89c1.28,0,2.2,0.63,2.87,1.74c0.66,1.09,1.21,1.77,1.21,3.04
		c0,0.23-0.07,0.35-0.07,0.57c0.01,2.19-1.82,3.92-4.01,3.92c-2.18-0.02-3.78-2.25-3.77-4.17c0-0.76,0.47-1.25,0.55-2.09
		C47.53,62.94,48.79,61.89,50.54,61.89L50.54,61.89z M66.57,67.8c2.24,0.01,3.24,1.86,4.34,3.81c1.08,1.9,2.29,2.93,2.29,5.1
		c0,2.18-1.42,3.27-3.1,4.66c-0.95,0.79-1.78,0.63-3.03,1c-0.57,0.17-0.69,0.95-0.76,1.64c-0.13,1.26-0.23,1.97-0.25,3.23
		c-0.05,2.1,0.02,3.29,0.03,5.38c-0.22,1.16-0.03,1.95-0.57,2.98c-0.87,1.65-2.25,2.47-4.12,2.46c-2.17,0-4.03-1.72-3.99-3.9
		c0.01-0.65,0.28-2.6,0.25-4.28c-0.06-2.54-0.26-3.98-0.27-6.52c-0.01-1.27,0.56-1.95,0.56-3.23v-1.07
		c-0.03-0.93,0.88-1.77,1.83-2.53c1.36-1.09,1.93-2.3,2.57-3.93C63.4,69.92,63.99,67.8,66.57,67.8L66.57,67.8z M50.56,77.86
		c1.09,0.01,1.84,0.4,2.48,1.27c1.04,1.41,1.68,2.45,1.69,4.19c0,0.38-0.03,0.58-0.06,0.96c-0.17,1.43-0.63,2.2-1.39,3.41
		c-0.48,0.77-0.49,1.37-0.87,2.21c-0.72,1.53-1.14,2.96-1.2,4.18c-0.07,2.52-0.11,3.94-0.05,6.46c0.03,1.26,0.32,1.95,0.32,3.2
		c0.01,2.62-1.52,5.27-4.14,5.27c-2.59,0.01-5.06-3.42-4.93-7.03c0.06-1.3,0.27-2.02,0.5-3.29c0.39-2,0.7-4.26,1.06-5.13
		c0.5-1.14,0.47-1.55,0.56-1.91l0.3-2.07c0-0.85,0.33-1.02,0.47-1.85c0.29-1.78,0.49-2.77,1.06-4.49c0.34-1.06,0.83-1.55,1.2-2.59
		C48.09,79.14,48.96,77.86,50.56,77.86L50.56,77.86z"/>
</g>
</svg>
