<?xml version="1.0" encoding="utf-8"?>
<!-- Generator: Adobe Illustrator 27.4.1, SVG Export Plug-In . SVG Version: 6.00 Build 0)  -->
<svg version="1.1" id="Layer_1" xmlns="http://www.w3.org/2000/svg" xmlns:xlink="http://www.w3.org/1999/xlink" x="0px" y="0px"
	 viewBox="0 0 176.71 59.73" style="enable-background:new 0 0 176.71 59.73;" xml:space="preserve">
<style type="text/css">
	.st0{fill-rule:evenodd;clip-rule:evenodd;}
</style>
<g>
	<path class="st0" d="M58.11,25.7c-3.72,3.72-11.17,11.17-11.17,11.17s0.11,5.8-1.19,8.36c-2.73,5.39-12.44,12.95-12.44,12.95
		l-1.65-1.82c0,0,5.03-5.62,4.44-9.37l-2.86-18.77c-2.91,3.02-5.9,6.34-9.07,9.91c0.18,2.31,0.08,4.63-0.97,6.68
		c-2.66,5.22-12.08,12.91-12.08,12.91L9.5,55.99c0,0,3.03-3.01,3.81-5c0.35-0.89,0.44-1.87,0.5-2.72
		c0.25-3.71-3.14-21.07-5.67-34.03c-0.83-4.25-2.61-4.37-3.9-4.01c-1.14,0.31-3.43,1.14-3.43,1.14L0.48,9.73L18.69,2.3l4.85,30.57
		l9.03-8.92l-1.46-9.11c-0.2-1.51-0.78-3.16-2.73-3.43c-1.73-0.24-4.82,1.21-4.82,1.21l-0.78-1.98L41.4,2.22l4.91,29.8
		c0,0,6.29-6.46,6.74-6.95c1.16-1.27,0.95-3.8-0.1-9.17c-0.31-2.53-0.74-5.27-2.42-5.8c-1.88-0.59-5.04,0.85-5.04,0.85l-0.68-1.9
		l16.93-7.49c0,0,2.54,10.61,2.28,10.61c0.74,5.43-0.14,6.63-1.37,8.48C61.38,22.54,58.11,25.7,58.11,25.7L58.11,25.7z M67.48,43.81
		c-0.41-2.17,0.26-4.37,1.09-6.25c1.49-3.35,6.17-4.12,9.57-4.42c2.43-0.22,4.65,4.55,4.65,4.55l-3.98,2.33c0,0-0.97-2.42-1.82-3.28
		c-0.69-0.7-1.86-0.83-2.62-0.04c-1.93,2-1.72,4.81-1.74,4.61c0.12,1.16,1.96,1.67,1.93,1.65c1.91,1.19,4.3,1.71,5.31,3.69
		c0.55,1.09-0.38,4.28-1.27,5.5c-1.12,1.55-5.5,4.97-9.32,4.47c-4.61-0.6-5.7-5.79-5.7-5.79l4.76-2.75c0,0,1.78,6.17,3.95,4.89
		c1.16-0.68,2.04-2.71,1.55-4.27c-0.32-1.04-2.07-1.43-3.68-2.44C69.12,45.6,67.73,45.11,67.48,43.81L67.48,43.81z M87.99,29.26
		c0.43-1.08-0.46-3.21-0.46-3.21l4.49-2.12c0,0,1.71,1.13,1.49,3.55c-0.18,2-1.04,6.08-1.04,6.08h6.32c0,0,1.37-5.03,2.39-8.63
		c0.47-1.64,1.09-2.51,2.43-3.39c1.81-1.18,8.2-6.67,12.22-3.98c1.23,0.83,2.49,2.23,2.25,3.72c-0.52,3.15-0.83,4.9-2,8.06
		c-1.58,0.1-4.77,0-4.77,0s2.21-5.63,0.64-7.54c-1.86-2.26-3.99,0.56-4,0.57c-1.56,1-3.66,11.19-3.66,11.19h11.06
		c0,0-3.36,12.85-4.75,17.21c-0.4,1.27-0.3,1.58,0.26,2.12c0.91,0.87,2.9-0.86,2.9-0.86l1,1.63c0,0-2.77,2.18-4.6,3.15
		c-2.77,1.47-5.75-4.13-5.51-4.99c1.32-4.59,2.36-8.4,3.48-13.07c0.19-0.78,0.06-1.46-0.22-2.01c-0.53-1.02-4.36-0.75-4.36-0.75
		l-6.01,20.58h-5.16L98.26,36h-6.95c0,0-2.85,9.93-3.86,14.8c-0.15,0.72,0.07,1.41,0.64,1.83c0.94,0.7,3.67-1.36,3.67-1.36
		l0.77,1.63c0,0-5.54,4.32-7.1,4.09c-1.18-0.18-3.44-2.49-3.76-3.57C81.29,52.15,85.93,36,85.93,36h-2.75l0.3-2.43h3.29
		C86.78,33.57,87.41,30.73,87.99,29.26L87.99,29.26z M142.82,21.11c1.9-5.09,11.4-4.49,11.4-4.49l0.14,1.62c0,0-5.12,0.24-6.32,3.71
		c-3.2,9.23-5.21,18.68-8.09,28.22c-0.18,0.59-0.21,1.38,0.22,1.77c1.63,1.46,4.55-1.9,4.55-1.9s1.72-9.28,4.08-13.4
		c1.49-2.6,4.79-3.72,7.66-4.41c1.85-0.45,4.93,1.37,4.93,1.37s1.27-4.74,2.84-9.78c0.34-1.09,0.66-3.52,2.11-4.45
		c4.99-3.21,9.69-2.84,9.69-2.84l0.2,1.51c0,0-5.14,0.81-6.18,3.92c-3.32,9.93-5.5,17.54-7.82,27.66c-0.11,0.92-0.35,2.75,0.61,3.03
		c1.47,0.42,4.91-2.29,4.91-2.29l1,2.03c0,0-3.97,2.6-5.96,3.76c-2.57,1.5-5.83-2.41-5.83-2.41s-5.2,2.94-6.73,2.61
		c-2.52-0.54-4.76-3.76-4.76-3.76s-1.8,1.37-6.54,3.56c-1.77,0.82-4.59-1.2-4.98-3.16c-0.28-1.39,0.23-2.75,0.61-4.11
		c1.63-5.78,3.07-11.29,4.82-17.04C140.4,28.49,141.5,24.64,142.82,21.11L142.82,21.11z M121.32,35.9c3.19-1.38,6.39-3.5,9.96-3.14
		c2.17,0.22,2.85,1.84,3.13,4.02c0.26,2.1-0.44,4.05-1.36,5.82c-3,5.86-10.72,2.81-10.72,2.81s-1.24,2.87-0.95,4.63
		c0.2,1.23,1.99,3.09,3.1,3.15c2.18,0.12,5.97-2.6,5.97-2.6l1.16,1.68c0,0-4.94,3.1-7.73,4.65c-2.23,1.23-6.43-2.53-7.89-4.33
		c-1.56-1.92,0.23-6.76,1.23-10C117.97,40.11,118.75,37.02,121.32,35.9L121.32,35.9z M52.87,35.79c3.2-1.38,6.5-2.87,10.07-2.51
		c2.17,0.22,2.86,1.42,3.13,3.59c0.26,2.1-0.44,4.06-1.35,5.83c-2.72,5.31-10.61,3.65-10.61,3.65s-1.13,1.82-0.85,3.58
		c0.2,1.22,1.46,2.77,2.57,2.84c2.17,0.11,5.66-2.6,5.66-2.6l1.16,1.68c0,0-4.85,3.25-7.73,4.65c-3.07,1.49-6.01-1.8-7.47-3.6
		c-1.56-1.91,0.44-6.97,1.43-10.21C49.63,40.22,50.29,36.92,52.87,35.79L52.87,35.79z M150.37,48.86c-0.88,4.35,5.32,4.81,6.64,1
		c1.32-3.81,1.95-7.19,2.96-11.1c0.27-1.04-0.79-3.05-2.39-3.5c-1.54-0.43-3.42,0.17-4.01,2.29c-0.5,1.75-0.71,2.01-1.1,3.74
		C151.78,44.37,151.06,45.41,150.37,48.86L150.37,48.86z M59.24,42.94c0.98-2.28,1.17-3.02,1.44-4.6c0.48-2.85-3.21-3.58-4.46-0.33
		c-1.08,2.81-0.96,1.49-1.06,4.45C55.08,44.84,58.64,44.34,59.24,42.94L59.24,42.94z M127.82,42.39c0.98-2.27,1.17-3.02,1.45-4.6
		c0.48-2.85-3.21-3.58-4.46-0.32c-1.08,2.81-0.96,1.49-1.06,4.45C123.67,44.3,127.22,43.8,127.82,42.39L127.82,42.39z"/>
</g>
</svg>
